<?xml version="1.0" encoding="UTF-8" standalone="no"?>
<svg
   xmlns:dc="http://purl.org/dc/elements/1.1/"
   xmlns:cc="http://creativecommons.org/ns#"
   xmlns:rdf="http://www.w3.org/1999/02/22-rdf-syntax-ns#"
   xmlns:svg="http://www.w3.org/2000/svg"
   xmlns="http://www.w3.org/2000/svg"
   xmlns:sodipodi="http://sodipodi.sourceforge.net/DTD/sodipodi-0.dtd"
   xmlns:inkscape="http://www.inkscape.org/namespaces/inkscape"
   version="1.1"
   id="svg2"
   xml:space="preserve"
   viewBox="0 0 1122.52 793.70667"
   sodipodi:docname="My great buyer Victor File.ai"><metadata
     id="metadata8"><rdf:RDF><cc:Work
         rdf:about=""><dc:format>image/svg+xml</dc:format><dc:type
           rdf:resource="http://purl.org/dc/dcmitype/StillImage" /></cc:Work></rdf:RDF></metadata><defs
     id="defs6"><clipPath
       clipPathUnits="userSpaceOnUse"
       id="clipPath20"><path
         d="M 0,595.28 H 841.89 V 0 H 0 Z"
         id="path18" /></clipPath></defs><sodipodi:namedview
     bordercolor="#666666"
     borderopacity="1"
     objecttolerance="10"
     gridtolerance="10"
     guidetolerance="10"
     inkscape:pageopacity="0"
     inkscape:pageshadow="2"
     id="namedview4" /><g
     id="g10"
     inkscape:groupmode="layer"
     transform="matrix(1.3333333,0,0,-1.3333333,0,793.70667)">
     <g
       id="g14"><g
         id="g16"
         clip-path="url(#clipPath20)"><g
           id="g22"
           transform="translate(403.6842,300.5052)"><path
             d="m 0,0 h 32.427 c 5.452,0 8.176,2.726 8.176,8.179 v 21.234 c 0,5.453 -2.724,8.179 -8.176,8.179 L 0,37.592 Z m -14.634,-48.208 v 98.999 h 47.203 c 15.113,0 22.671,-7.556 22.671,-22.669 V 9.326 C 55.24,-5.691 47.682,-13.2 32.569,-13.2 H 0 v -35.008 z"
             style="fill:#0054a5;fill-opacity:1;fill-rule:nonzero;stroke:none"
             id="path24" /></g><g
           id="g26"
           transform="translate(472.297,252.2968)"><path
             d="m 0,0 v 66 c 3.346,5.93 9.706,8.896 19.082,8.896 H 33.86 l 6.599,-4.878 V 62.699 H 20.518 c -3.063,0 -5.263,-0.766 -6.602,-2.294 L 13.916,0 Z"
             style="fill:#0054a5;fill-opacity:1;fill-rule:nonzero;stroke:none"
             id="path28" /></g><g
           id="g30"
           transform="translate(535.026,295.7713)"><path
             d="m 0,0 h 34.722 v 10.903 c 0,5.547 -2.774,8.322 -8.321,8.322 H 8.467 C 2.821,19.225 0,16.45 0,10.903 Z M -13.916,-21.378 V 9.469 c 0,14.635 7.317,21.952 21.951,21.952 h 18.652 c 14.729,0 22.095,-7.317 22.095,-21.952 V -11.765 H 0 v -11.049 c 0,-5.644 2.821,-8.464 8.467,-8.464 h 37.446 v -7.318 l -6.599,-4.878 H 8.035 c -14.634,0 -21.951,7.364 -21.951,22.096"
             style="fill:#0054a5;fill-opacity:1;fill-rule:nonzero;stroke:none"
             id="path32" /></g><g
           id="g34"
           transform="translate(610.4379,272.9574)"><path
             d="M 0,0 C 0,-5.644 2.821,-8.464 8.467,-8.464 H 34.722 V 42.039 H 8.467 C 2.821,42.039 0,39.263 0,33.717 Z m -13.916,1.436 v 30.847 c 0,14.635 7.317,21.952 21.951,21.952 H 48.782 V -49.356 h -14.06 v 28.695 H 8.035 c -14.634,0 -21.951,7.365 -21.951,22.097"
             style="fill:#0054a5;fill-opacity:1;fill-rule:nonzero;stroke:none"
             id="path36" /></g><g
           id="g38"
           transform="translate(673.6595,274.8227)"><path
             d="M 0,0 V 83.648 H 13.916 V -1.434 c 0,-6.314 3.251,-9.71 9.758,-10.187 V -23.817 C 7.891,-23.817 0,-15.878 0,0"
             style="fill:#0054a5;fill-opacity:1;fill-rule:nonzero;stroke:none"
             id="path40" /></g><g
           id="g42"
           transform="translate(144.6508,296.1243)"><path
             d="m 0,0 c 0,-6.457 0.073,-12.023 -0.041,-17.586 -0.038,-1.814 0.531,-2.819 2.134,-3.74 29.676,-17.051 59.321,-34.157 88.938,-51.309 1.509,-0.874 2.576,-0.788 4.03,0.063 9.952,5.828 19.865,11.733 29.999,17.23 3.405,1.847 4.82,3.851 4.491,7.754 -0.391,4.65 -0.092,9.359 -0.092,14.46 -1.398,-0.754 -2.292,-1.208 -3.158,-1.708 -10.392,-5.994 -20.801,-11.96 -31.149,-18.029 -1.555,-0.912 -2.678,-0.951 -4.267,-0.025 -15.667,9.132 -31.355,18.232 -47.108,27.214 -8.044,4.586 -16.325,8.759 -24.328,13.411 C 13.068,-8.556 6.945,-4.404 0,0"
             style="fill:#592c8c;fill-opacity:1;fill-rule:nonzero;stroke:none"
             id="path44" /></g><g
           id="g46"
           transform="translate(144.6917,263.1142)"><path
             d="m 0,0 c 0,-6.476 -0.072,-12.332 0.08,-18.182 0.022,-0.85 0.926,-1.994 1.735,-2.462 29.779,-17.259 59.589,-34.466 89.439,-51.602 0.838,-0.481 2.404,-0.548 3.222,-0.086 11.175,6.316 22.286,12.748 33.384,19.202 0.639,0.372 1.457,1.168 1.468,1.779 0.109,6.081 0.066,12.164 0.066,18.638 -1.361,-0.736 -2.255,-1.193 -3.124,-1.693 -10.234,-5.903 -20.494,-11.763 -30.672,-17.764 -1.914,-1.128 -3.336,-1.136 -5.266,-0.014 C 67.41,-38.862 44.436,-25.627 21.474,-12.373 14.487,-8.34 7.495,-4.318 0,0"
             style="fill:#592c8c;fill-opacity:1;fill-rule:nonzero;stroke:none"
             id="path48" /></g><g
           id="g50"
           transform="translate(283.2791,378.0863)"><path
             d="m 0,0 c -5.572,3.263 -10.412,6.013 -15.154,8.922 -1.547,0.949 -2.702,0.966 -4.306,0.048 -29.711,-16.991 -59.452,-33.928 -89.22,-50.817 -1.517,-0.861 -1.982,-1.825 -1.982,-3.51 0,-11.532 0.086,-23.071 -0.292,-34.594 -0.127,-3.871 0.888,-6.105 4.422,-7.794 4.211,-2.012 8.123,-4.649 12.525,-7.227 0.055,1.588 0.115,2.588 0.122,3.588 0.079,11.997 0.19,23.993 0.182,35.99 -10e-4,1.803 0.534,2.792 2.135,3.695 15.798,8.904 31.578,17.843 47.29,26.898 8.022,4.624 15.807,9.661 23.866,14.216 C -13.987,-6.953 -7.31,-3.768 0,0"
             style="fill:#489fd8;fill-opacity:1;fill-rule:nonzero;stroke:none"
             id="path52" /></g><g
           id="g54"
           transform="translate(254.7733,394.7323)"><path
             d="m 0,0 c -5.588,3.273 -10.605,6.294 -15.73,9.12 -0.745,0.41 -2.188,0.207 -3.001,-0.254 -29.942,-16.975 -59.854,-34.004 -89.725,-51.102 -0.84,-0.481 -1.688,-1.797 -1.703,-2.737 -0.197,-12.836 -0.261,-25.674 -0.3,-38.511 -0.003,-0.74 0.271,-1.848 0.793,-2.166 5.192,-3.167 10.463,-6.204 16.049,-9.475 0.053,1.546 0.111,2.548 0.118,3.55 0.078,11.815 0.206,23.63 0.171,35.444 -0.006,2.223 0.706,3.454 2.649,4.553 23.08,13.047 46.109,26.184 69.15,39.3 C -14.518,-8.287 -7.513,-4.285 0,0"
             style="fill:#489fd8;fill-opacity:1;fill-rule:nonzero;stroke:none"
             id="path56" /></g><g
           id="g58"
           transform="translate(302.75,280.18)"><path
             d="m 0,0 c 0.08,18.85 0.03,38.48 0.02,51.63 -0.01,1.75 -0.61,2.63 -2.08,3.46 -10.04,5.68 -20.12,11.29 -29.96,17.29 -3.31,2.02 -5.75,2.24 -8.96,-0.01 -3.83,-2.67 -8.05,-4.77 -12.46,-7.33 1.35,-0.83 2.19,-1.38 3.06,-1.88 10.4,-5.98 20.79,-11.98 31.23,-17.89 1.57,-0.88 2.17,-1.84 2.16,-3.67 -0.03,-18.14 -0.03,-36.28 0.11,-54.41 0.08,-9.26 0.62,-18.51 0.62,-27.77 -0.01,-7.38 -0.52,-14.76 -0.85,-22.98 0.03,0.02 0.06,0.04 0.09,0.05 5.55,3.22 10.3,6.06 15.14,8.74 0.21,-0.56 0.39,-0.36 0.57,0.49 v 0.01 c 0.08,0.44 0.16,1.04 0.23,1.79 z"
             style="fill:#0054a5;fill-opacity:1;fill-rule:nonzero;stroke:none"
             id="path60" /></g><g
           id="g62"
           transform="translate(302.75,226.3)"><path
             d="m 0,0 0.32,0.05 c 0.44,0 0.89,-0.11 1.38,-0.33 h 0.01 c 0.21,-0.1 0.43,-0.21 0.67,-0.33 1.2,-0.69 2.41,-1.37 3.59,-2.05 l 0.31,-0.17 c 0.87,-0.49 1.72,-1 2.59,-1.49 6.04,-3.44 12.08,-6.88 18.12,-10.29 v -19.58 c -2.71,1.55 -5.42,3.19 -8.13,4.82 -5.14,3.1 -10.27,6.24 -15.52,9.2 -6.42,3.65 -13.1,6.79 -20.36,10.54 -0.01,0.01 -0.03,0.01 -0.04,0.02 1.39,0.82 2.74,1.61 4.04,2.37 0.66,0.38 1.31,0.76 1.95,1.14 0.17,0.1 0.36,0.21 0.53,0.32 h 0.02 c 1.09,0.65 2.16,1.27 3.2,1.87 0.19,0.13 0.38,0.24 0.57,0.35 l 5.44,3.16 v 0.01 z"
             style="fill:#0054a5;fill-opacity:1;fill-rule:nonzero;stroke:none"
             id="path64" /></g><g
           id="g66"
           transform="translate(314.1717,233.2264)"><path
             d="m 0,0 c 5.601,3.251 10.702,6.128 15.685,9.196 0.725,0.446 1.259,1.802 1.259,2.736 -0.022,34.42 -0.105,68.839 -0.269,103.258 -0.004,0.967 -0.732,2.354 -1.542,2.829 -11.073,6.495 -22.214,12.876 -33.366,19.234 -0.643,0.367 -1.742,0.674 -2.276,0.377 -5.314,-2.958 -10.553,-6.049 -16.152,-9.299 1.32,-0.808 2.163,-1.352 3.032,-1.851 10.243,-5.889 20.461,-11.821 30.76,-17.611 1.937,-1.089 2.658,-2.315 2.656,-4.548 C -0.228,77.809 -0.142,51.296 -0.078,24.784 -0.059,16.717 -0.028,8.649 0,0"
             style="fill:#0054a5;fill-opacity:1;fill-rule:nonzero;stroke:none"
             id="path68" /></g><g
           id="g70"
           transform="translate(302.75,226.3)"><path
             d="m 0,0 v 0.78 53.1 43.16"
             style="fill:#0054a5;fill-opacity:1;fill-rule:nonzero;stroke:none"
             id="path72" /></g><path
           d="m 285.844,216.551 h 16.906 v 73.958 h -16.906 z"
           style="fill:#0054a5;fill-opacity:1;fill-rule:nonzero;stroke:none"
           id="path74" /><g
           id="g76"
           transform="translate(305.8994,222.0524)"><path
             d="M 0,0 1.371,2.42 -3.906,5.41 -5.277,2.99 Z"
             style="fill:#0054a5;fill-opacity:1;fill-rule:nonzero;stroke:none"
             id="path78" /></g></g></g></g></svg>
